<svg xmlns="http://www.w3.org/2000/svg" viewBox="0 0 564.785 565.062"><path d="M468.261 272.526c-14.981 15.553-38.64 24.144-59.01 29.894-21.166 5.978-43.478 8.66-65.242 8.828-17.779.138-35.519-1.029-53.173 1.847-10.596 1.727-22.778 6.832-24.088 18.801-.254 2.306-2.348 9.462-1.286 11.4-6.262-11.42-8.257-26.18-2.161-38.098 7.328-14.324 23.65-17.967 38.375-19.554 14.253-1.537 28.892-2.637 42.073-8.729 7.967-3.683 15.124-10.047 17.697-18.437 1.626-5.302 1.355-11.1 4.375-16.012.97-1.579 2.305-2.947 3.955-3.796 6.012-3.098 11.116 1.885 12.573 7.17 2.177 7.886-1.59 16.063-5.259 23.376l-10.998 21.934c.666-1.33 9.704-2.752 11.512-3.279 4.602-1.343 9.19-2.74 13.725-4.3 13.68-4.71 28.003-10.63 37.332-22.17 9.493-11.745 13.683-27.327 14.47-42.189.386-7.258.055-14.338-1.935-21.318-1.591-5.576-4.292-13.619.085-18.632 3.937-4.51 10.843-4.684 14.807-.148l.164.19c6.533 7.752 7.558 19.714 7.328 29.515-.211 8.937-1.712 17.701-3.426 26.452-1.001 5.115-1.208 18.57-5.87 21.825 11.008-7.69 19.184-19.046 24.205-31.5 3.447-8.549 5.461-17.62 6.424-26.773.861-8.184.272-16.432 2.07-24.513 1.151-5.178 5.685-21.155 13.666-13.862 1.52 1.387 2.51 3.258 3.01 5.254 4.991 19.881-1.794 40.357-7.526 59.284-5.373 17.745-15.008 34.186-27.872 47.54zM282.888 0C128.038-.265 1.14 125.44.008 280.284c-.566 77.423 30.044 147.687 80.002 199.024 26.726-63.77 66.638-106.032 102.174-126.337-41.426-20.663-42.683-64.768-42.683-64.768 45.059 2.456 67.233 29.299 77.272 47.925a48.43 48.43 0 015.565-.504c6.019-.182 11.923.815 17.678 2.535-2.731-6.677-5.964-13.148-9.727-19.304-10.728-17.55-25.34-32.455-36.259-49.885-10.92-17.43-18.029-39.059-11.525-58.57 5.432-.12 8.552 5.91 10.841 10.836a90.226 90.226 0 0015.548 23.184c.972 1.05 2.303 1.756 3.731 1.83 2.852.148 3.744-1.914 4.375-3.826 5.065-15.364 1.945-32.696-6.155-46.698-8.099-14.003-20.77-24.927-34.673-33.196-12.55-7.464-26.27-12.996-38.075-21.592-13.979-10.179-25.104-25.139-27.79-42.22-2.689-17.083 4.309-36.062 19.102-45.016 7.028-4.254 17.328-5.536 22.567.79-17.675 11.224-22.471 38.392-9.707 54.988 10.548 13.716 29.015 18.56 46.265 19.907 4.398.343 8.926.501 13.108-.897 9.61-3.218 14.926-14.079 14.979-24.214.052-10.133-4.004-19.777-7.864-29.148-3.86-9.37-7.657-19.178-7.05-29.294 1.091-18.184 18.63-33.735 36.815-32.639 1.419 5.064-1.337 10.4-4.861 14.304s-7.907 7.056-10.865 11.407c-7.752 11.397-3.456 26.976 2.874 39.22 6.331 12.244 14.684 24.434 14.47 38.217-.196 12.403-7.358 23.515-10.584 35.492-2.78 10.321-2.575 21.43.589 31.64 3.128 10.1 12.31 20.615 22.447 17.61 4.406-1.309 7.796-4.955 12.156-6.413 6.37-2.129 14.098 1.516 16.506 7.787 2.41 6.27-.89 14.15-7.048 16.835-5.645 2.46-12.389.773-18.128 3.001-7.584 2.944-11.074 11.604-12.937 19.521-5.761 24.488-3.77 50.74 5.617 74.08 4.39 10.912 10.364 21.27 14.146 32.344a295.349 295.349 0 0152.928 36.484c8.721 7.543 17.084 15.698 23.248 25.443 2.938 4.647 5.421 9.959 4.892 15.43-.736 7.59-7.246 13.605-14.427 16.162-7.184 2.557-15.01 2.361-22.632 2.26-43.579-.577-87.565 3.052-129.287 15.65-22.392 6.763-49.786 18.073-74.894 32.086-2.948 1.645-3.319 5.744-.72 7.899l.08.066a4.79 4.79 0 005.557.388c34.376-20.934 73.257-34.504 113.252-39.093-14.259 7.475-21.73 24.832-19.983 40.839 4.456 40.78 49.527 61.984 86.263 63.122 41.496 1.286 86.144-11.985 122.841-30.61 78.491-39.835 135.25-116.028 150.491-202.767a284.449 284.449 0 004.272-49.207C564.785 126.596 438.622.267 282.888 0" fill="#c05621"/></svg>